%TF.GenerationSoftware,KiCad,Pcbnew,8.0.5*%
%TF.CreationDate,2024-10-11T09:15:34-05:00*%
%TF.ProjectId,Lab2_starter,4c616232-5f73-4746-9172-7465722e6b69,1*%
%TF.SameCoordinates,Original*%
%TF.FileFunction,Soldermask,Bot*%
%TF.FilePolarity,Negative*%
%FSLAX46Y46*%
G04 Gerber Fmt 4.6, Leading zero omitted, Abs format (unit mm)*
G04 Created by KiCad (PCBNEW 8.0.5) date 2024-10-11 09:15:34*
%MOMM*%
%LPD*%
G01*
G04 APERTURE LIST*
G04 Aperture macros list*
%AMRoundRect*
0 Rectangle with rounded corners*
0 $1 Rounding radius*
0 $2 $3 $4 $5 $6 $7 $8 $9 X,Y pos of 4 corners*
0 Add a 4 corners polygon primitive as box body*
4,1,4,$2,$3,$4,$5,$6,$7,$8,$9,$2,$3,0*
0 Add four circle primitives for the rounded corners*
1,1,$1+$1,$2,$3*
1,1,$1+$1,$4,$5*
1,1,$1+$1,$6,$7*
1,1,$1+$1,$8,$9*
0 Add four rect primitives between the rounded corners*
20,1,$1+$1,$2,$3,$4,$5,0*
20,1,$1+$1,$4,$5,$6,$7,0*
20,1,$1+$1,$6,$7,$8,$9,0*
20,1,$1+$1,$8,$9,$2,$3,0*%
G04 Aperture macros list end*
%ADD10C,2.000000*%
%ADD11C,2.300000*%
%ADD12C,1.200000*%
%ADD13C,3.600000*%
%ADD14C,2.800000*%
%ADD15C,2.600000*%
%ADD16O,2.600000X4.200000*%
%ADD17R,1.625600X1.625600*%
%ADD18C,1.625600*%
%ADD19C,3.200000*%
%ADD20C,2.250000*%
%ADD21R,1.828800X1.828800*%
%ADD22C,1.828800*%
%ADD23R,1.905000X2.000000*%
%ADD24O,1.905000X2.000000*%
%ADD25R,2.250000X2.250000*%
%ADD26RoundRect,0.102000X-0.754000X-0.754000X0.754000X-0.754000X0.754000X0.754000X-0.754000X0.754000X0*%
%ADD27C,1.712000*%
%ADD28R,1.700000X1.700000*%
%ADD29O,1.700000X1.700000*%
%ADD30C,1.371600*%
%ADD31R,1.371600X1.371600*%
%ADD32R,1.300000X1.300000*%
%ADD33C,1.300000*%
%ADD34RoundRect,0.250000X0.475000X-0.250000X0.475000X0.250000X-0.475000X0.250000X-0.475000X-0.250000X0*%
%ADD35C,1.507998*%
%ADD36RoundRect,0.250000X-0.262500X-0.450000X0.262500X-0.450000X0.262500X0.450000X-0.262500X0.450000X0*%
%ADD37R,1.200000X1.200000*%
%ADD38RoundRect,0.250000X-0.250000X-0.475000X0.250000X-0.475000X0.250000X0.475000X-0.250000X0.475000X0*%
%ADD39RoundRect,0.250000X0.250000X0.475000X-0.250000X0.475000X-0.250000X-0.475000X0.250000X-0.475000X0*%
G04 APERTURE END LIST*
D10*
%TO.C,TP7*%
X29000000Y-134800000D03*
%TD*%
D11*
%TO.C,J15*%
X71500000Y-103730000D03*
D12*
X71500000Y-106270000D03*
%TD*%
D13*
%TO.C,J5*%
X109100000Y-132800000D03*
%TD*%
D14*
%TO.C,L1*%
X85540000Y-47858000D03*
X88080000Y-50398000D03*
X90620000Y-47858000D03*
D15*
X90620000Y-52938000D03*
D14*
X93160000Y-50398000D03*
X95700000Y-47858000D03*
D16*
X95700000Y-53700000D03*
D14*
X98240000Y-50398000D03*
X100780000Y-47858000D03*
D16*
X100780000Y-53700000D03*
D14*
X103320000Y-50398000D03*
X105860000Y-47858000D03*
D16*
X105860000Y-53700000D03*
D14*
X108400000Y-50398000D03*
X110940000Y-47858000D03*
D16*
X110940000Y-53700000D03*
D14*
X113480000Y-50398000D03*
X116020000Y-47858000D03*
D16*
X116020000Y-53700000D03*
D14*
X118560000Y-50398000D03*
X121100000Y-47858000D03*
D15*
X121100000Y-52938000D03*
D14*
X123640000Y-50398000D03*
X126180000Y-47858000D03*
X85540000Y-83418000D03*
X88080000Y-80878000D03*
D15*
X90620000Y-78338000D03*
D14*
X90620000Y-83418000D03*
X93160000Y-80878000D03*
D16*
X95700000Y-77576000D03*
D14*
X95700000Y-83418000D03*
X98240000Y-80878000D03*
D16*
X100780000Y-77576000D03*
D14*
X100780000Y-83418000D03*
X103320000Y-80878000D03*
D16*
X105860000Y-77576000D03*
D14*
X105860000Y-83418000D03*
X108400000Y-80878000D03*
D16*
X110940000Y-77576000D03*
D14*
X110940000Y-83418000D03*
X113480000Y-80878000D03*
D16*
X116020000Y-77576000D03*
D14*
X116020000Y-83418000D03*
X118560000Y-80878000D03*
D15*
X121100000Y-78338000D03*
D14*
X121100000Y-83418000D03*
X123640000Y-80878000D03*
X126180000Y-83418000D03*
%TD*%
D11*
%TO.C,J8*%
X104700000Y-134000000D03*
D12*
X102160000Y-134000000D03*
%TD*%
D17*
%TO.C,RV1*%
X55388000Y-105950000D03*
D18*
X47888000Y-103450000D03*
%TD*%
D10*
%TO.C,TP5*%
X141900000Y-54300000D03*
%TD*%
D19*
%TO.C,H2*%
X153900000Y-135200000D03*
%TD*%
D20*
%TO.C,F1*%
X139500000Y-61500000D03*
X139500000Y-97100000D03*
%TD*%
D11*
%TO.C,J7*%
X78830000Y-119900000D03*
D12*
X81370000Y-119900000D03*
%TD*%
D11*
%TO.C,J13*%
X116400000Y-128100000D03*
D12*
X113860000Y-128100000D03*
%TD*%
D21*
%TO.C,D1*%
X61331200Y-97700000D03*
D22*
X43271800Y-97700000D03*
%TD*%
D23*
%TO.C,Q1*%
X109483250Y-113650000D03*
D24*
X112023250Y-113650000D03*
X114563250Y-113650000D03*
%TD*%
D25*
%TO.C,J3*%
X23050000Y-114700000D03*
D20*
X40550000Y-114700000D03*
%TD*%
D25*
%TO.C,J4*%
X22950000Y-124800000D03*
D20*
X40450000Y-124800000D03*
%TD*%
D25*
%TO.C,J1*%
X135950000Y-116100000D03*
D20*
X153450000Y-116100000D03*
%TD*%
D11*
%TO.C,J11*%
X78730000Y-114900000D03*
D12*
X81270000Y-114900000D03*
%TD*%
D23*
%TO.C,Q2*%
X114483250Y-119650000D03*
D24*
X111943250Y-119650000D03*
X109403250Y-119650000D03*
%TD*%
D19*
%TO.C,H4*%
X153600000Y-42700000D03*
%TD*%
D10*
%TO.C,TP2*%
X138100000Y-134300000D03*
%TD*%
D13*
%TO.C,J6*%
X150100000Y-83400000D03*
%TD*%
D19*
%TO.C,H1*%
X22300000Y-42300000D03*
%TD*%
D11*
%TO.C,J16*%
X150000000Y-77770000D03*
D12*
X150000000Y-75230000D03*
%TD*%
D11*
%TO.C,J14*%
X151030000Y-97700000D03*
D12*
X153570000Y-97700000D03*
%TD*%
D11*
%TO.C,J10*%
X116370000Y-132500000D03*
D12*
X113830000Y-132500000D03*
%TD*%
D19*
%TO.C,H3*%
X23100000Y-134800000D03*
%TD*%
D26*
%TO.C,PS1*%
X135360000Y-107050000D03*
D27*
X137900000Y-107050000D03*
X140440000Y-107050000D03*
%TD*%
D10*
%TO.C,TP13*%
X147000000Y-42800000D03*
%TD*%
%TO.C,TP3*%
X83800000Y-129300000D03*
%TD*%
D11*
%TO.C,J12*%
X91440000Y-129400000D03*
D12*
X88900000Y-129400000D03*
%TD*%
D11*
%TO.C,J9*%
X103000000Y-100700000D03*
D12*
X100460000Y-100700000D03*
%TD*%
D28*
%TO.C,U3*%
X26440000Y-49370000D03*
D29*
X26440000Y-51910000D03*
X26440000Y-54450000D03*
X26440000Y-56990000D03*
X26440000Y-59530000D03*
X26440000Y-62070000D03*
X26440000Y-64610000D03*
X26440000Y-67150000D03*
X26440000Y-69690000D03*
X26440000Y-72230000D03*
X72160000Y-72230000D03*
X72160000Y-69690000D03*
X72160000Y-67150000D03*
X72160000Y-64610000D03*
X72160000Y-62070000D03*
X72160000Y-59530000D03*
X72160000Y-56990000D03*
X72160000Y-54450000D03*
X72160000Y-51910000D03*
X72160000Y-49370000D03*
X28980000Y-49370000D03*
X28980000Y-51910000D03*
X28980000Y-54450000D03*
X28980000Y-56990000D03*
X28980000Y-59530000D03*
X28980000Y-62070000D03*
X28980000Y-64610000D03*
X28980000Y-67150000D03*
X28980000Y-69690000D03*
X28980000Y-72230000D03*
X69620000Y-72230000D03*
X69620000Y-69690000D03*
X69620000Y-67150000D03*
X69620000Y-64610000D03*
X69620000Y-62070000D03*
X69620000Y-59530000D03*
X69620000Y-56990000D03*
X69620000Y-54450000D03*
X69620000Y-51910000D03*
D28*
X69620000Y-49370000D03*
%TD*%
D30*
%TO.C,C16*%
X109700000Y-100900000D03*
X114700000Y-100900000D03*
%TD*%
D13*
%TO.C,HS1*%
X99483250Y-109150000D03*
X124819750Y-109146434D03*
%TD*%
%TO.C,HS2*%
X99483250Y-124150000D03*
X124819750Y-124146434D03*
%TD*%
D31*
%TO.C,PS2*%
X147860000Y-107149932D03*
D30*
X150400000Y-107149932D03*
X152940000Y-107149932D03*
%TD*%
D10*
%TO.C,TP1*%
X135000000Y-51500000D03*
%TD*%
%TO.C,TP11*%
X144600000Y-134300000D03*
%TD*%
D25*
%TO.C,J2*%
X135950000Y-126400000D03*
D20*
X153450000Y-126400000D03*
%TD*%
%TO.C,SW1*%
X35350000Y-96700000D03*
X24650000Y-96700000D03*
D32*
X32500000Y-95500000D03*
D33*
X30000000Y-95500000D03*
X27500000Y-95500000D03*
X27500000Y-97900000D03*
X30000000Y-97900000D03*
X32500000Y-97900000D03*
%TD*%
D30*
%TO.C,C6*%
X150500000Y-55700000D03*
X150500000Y-50700000D03*
%TD*%
D34*
%TO.C,C9*%
X114600000Y-117650000D03*
X114600000Y-115750000D03*
%TD*%
D35*
%TO.C,U1*%
X92653250Y-109800000D03*
X92653250Y-112340000D03*
X92653250Y-114880000D03*
X92653250Y-117420000D03*
X92653250Y-119960000D03*
X92653250Y-122500000D03*
X92653250Y-125040000D03*
X85033250Y-109800000D03*
X85033250Y-112340000D03*
X85033250Y-114880000D03*
X85033250Y-117420000D03*
X85033250Y-119960000D03*
X85033250Y-122500000D03*
X85033250Y-125040000D03*
%TD*%
D36*
%TO.C,R4*%
X98570750Y-112800000D03*
X100395750Y-112800000D03*
%TD*%
D37*
%TO.C,D2*%
X98033250Y-118200000D03*
X95233250Y-118200000D03*
%TD*%
D38*
%TO.C,C4*%
X98583250Y-115000000D03*
X100483250Y-115000000D03*
%TD*%
%TO.C,C3*%
X104483250Y-118200000D03*
X106383250Y-118200000D03*
%TD*%
D39*
%TO.C,C17*%
X153000000Y-103900000D03*
X151100000Y-103900000D03*
%TD*%
D34*
%TO.C,C12*%
X112300000Y-117650000D03*
X112300000Y-115750000D03*
%TD*%
D36*
%TO.C,R3*%
X100833250Y-119900000D03*
X102658250Y-119900000D03*
%TD*%
D34*
%TO.C,C15*%
X110000000Y-117650000D03*
X110000000Y-115750000D03*
%TD*%
M02*
