M48
; DRILL file {KiCad 8.0.5} date 2024-10-11T09:15:42-0500
; FORMAT={-:-/ absolute / inch / decimal}
; #@! TF.CreationDate,2024-10-11T09:15:42-05:00
; #@! TF.GenerationSoftware,Kicad,Pcbnew,8.0.5
; #@! TF.FileFunction,Plated,1,4,PTH
FMAT,2
INCH
; #@! TA.AperFunction,Plated,PTH,ViaDrill
T1C0.0157
; #@! TA.AperFunction,Plated,PTH,ComponentDrill
T2C0.0236
; #@! TA.AperFunction,Plated,PTH,ViaDrill
T3C0.0315
; #@! TA.AperFunction,Plated,PTH,ComponentDrill
T4C0.0315
; #@! TA.AperFunction,Plated,PTH,ComponentDrill
T5C0.0340
; #@! TA.AperFunction,Plated,PTH,ComponentDrill
T6C0.0390
; #@! TA.AperFunction,Plated,PTH,ComponentDrill
T7C0.0394
; #@! TA.AperFunction,Plated,PTH,ComponentDrill
T8C0.0433
; #@! TA.AperFunction,Plated,PTH,ComponentDrill
T9C0.0440
; #@! TA.AperFunction,Plated,PTH,ComponentDrill
T10C0.0472
; #@! TA.AperFunction,Plated,PTH,ComponentDrill
T11C0.0520
; #@! TA.AperFunction,Plated,PTH,ComponentDrill
T12C0.0591
; #@! TA.AperFunction,Plated,PTH,ComponentDrill
T13C0.0689
; #@! TA.AperFunction,Plated,PTH,ComponentDrill
T14C0.0709
; #@! TA.AperFunction,Plated,PTH,ComponentDrill
T15C0.0984
%
G90
G05
T1
X1.3317Y-4.2913
X1.3351Y-4.0433
X2.622Y-3.6811
X2.6255Y-4.0827
X2.6255Y-4.185
X2.6969Y-3.6784
X2.6988Y-3.8819
X2.8622Y-4.5709
X3.28Y-3.6811
X5.2559Y-2.2638
X5.4134Y-2.185
X5.8465Y-2.5571
X5.8868Y-2.6809
X5.9488Y-4.0906
X5.9719Y-3.4843
X5.9719Y-3.5827
X5.9843Y-2.4823
X6.0817Y-2.8309
X6.1024Y-2.3248
X6.1024Y-3.0118
T2
X2.815Y-4.1839
X3.1996Y-4.5236
X3.2035Y-4.7205
X3.5Y-5.0945
X3.9551Y-3.9646
X4.022Y-5.2756
X4.4815Y-5.2165
X4.4827Y-5.0433
X5.9055Y-2.9618
X6.0461Y-3.8465
T3
X5.3307Y-2.4567
T4
X1.0827Y-3.7598
X1.0827Y-3.8543
X1.1811Y-3.7598
X1.1811Y-3.8543
X1.2795Y-3.7598
X1.2795Y-3.8543
T5
X4.3189Y-3.9724
X4.5157Y-3.9724
X5.8213Y-4.2185
X5.9213Y-4.2185
X5.9252Y-1.9961
X5.9252Y-2.1929
X6.0213Y-4.2185
T6
X3.3478Y-4.3228
X3.3478Y-4.4228
X3.3478Y-4.5228
X3.3478Y-4.6228
X3.3478Y-4.7228
X3.3478Y-4.8228
X3.3478Y-4.9228
X3.6478Y-4.3228
X3.6478Y-4.4228
X3.6478Y-4.5228
X3.6478Y-4.6228
X3.6478Y-4.7228
X3.6478Y-4.8228
X3.6478Y-4.9228
T7
X1.0409Y-1.9437
X1.0409Y-2.0437
X1.0409Y-2.1437
X1.0409Y-2.2437
X1.0409Y-2.3437
X1.0409Y-2.4437
X1.0409Y-2.5437
X1.0409Y-2.6437
X1.0409Y-2.7437
X1.0409Y-2.8437
X1.1409Y-1.9437
X1.1409Y-2.0437
X1.1409Y-2.1437
X1.1409Y-2.2437
X1.1409Y-2.3437
X1.1409Y-2.4437
X1.1409Y-2.5437
X1.1409Y-2.6437
X1.1409Y-2.7437
X1.1409Y-2.8437
X1.1417Y-5.3071
X2.7409Y-1.9437
X2.7409Y-2.0437
X2.7409Y-2.1437
X2.7409Y-2.2437
X2.7409Y-2.3437
X2.7409Y-2.4437
X2.7409Y-2.5437
X2.7409Y-2.6437
X2.7409Y-2.7437
X2.7409Y-2.8437
X2.8409Y-1.9437
X2.8409Y-2.0437
X2.8409Y-2.1437
X2.8409Y-2.2437
X2.8409Y-2.3437
X2.8409Y-2.4437
X2.8409Y-2.5437
X2.8409Y-2.6437
X2.8409Y-2.7437
X2.8409Y-2.8437
X3.2992Y-5.0906
X5.315Y-2.0276
X5.3291Y-4.2146
X5.4291Y-4.2146
X5.437Y-5.2874
X5.5291Y-4.2146
X5.5866Y-2.1378
X5.6929Y-5.2874
X5.7874Y-1.685
T8
X4.3072Y-4.7106
X4.3104Y-4.4744
X4.4072Y-4.7106
X4.4104Y-4.4744
X4.5072Y-4.7106
X4.5104Y-4.4744
T9
X1.8854Y-4.0728
X2.1806Y-4.1713
T10
X2.815Y-4.0839
X3.0996Y-4.5236
X3.1035Y-4.7205
X3.6Y-5.0945
X4.0551Y-3.9646
X4.122Y-5.2756
X4.5815Y-5.2165
X4.5827Y-5.0433
X5.9055Y-3.0618
X5.9461Y-3.8465
T11
X1.7036Y-3.8465
X2.4146Y-3.8465
T12
X0.9035Y-4.9134
X0.9075Y-4.5157
X0.9705Y-3.8071
X1.3917Y-3.8071
X1.5925Y-4.9134
X1.5965Y-4.5157
X5.3524Y-4.5709
X5.3524Y-4.9764
X5.4921Y-2.4213
X5.4921Y-3.8228
X6.0413Y-4.5709
X6.0413Y-4.9764
T13
X3.3677Y-1.8842
X3.3677Y-3.2842
X3.4677Y-1.9842
X3.4677Y-3.1842
X3.5677Y-1.8842
X3.5677Y-2.0842
X3.5677Y-3.0842
X3.5677Y-3.2842
X3.6677Y-1.9842
X3.6677Y-3.1842
X3.7677Y-1.8842
X3.7677Y-3.2842
X3.8677Y-1.9842
X3.8677Y-3.1842
X3.9677Y-1.8842
X3.9677Y-3.2842
X4.0677Y-1.9842
X4.0677Y-3.1842
X4.1677Y-1.8842
X4.1677Y-3.2842
X4.2677Y-1.9842
X4.2677Y-3.1842
X4.3677Y-1.8842
X4.3677Y-3.2842
X4.4677Y-1.9842
X4.4677Y-3.1842
X4.5677Y-1.8842
X4.5677Y-3.2842
X4.6677Y-1.9842
X4.6677Y-3.1842
X4.7677Y-1.8842
X4.7677Y-2.0842
X4.7677Y-3.0842
X4.7677Y-3.2842
X4.8677Y-1.9842
X4.8677Y-3.1842
X4.9677Y-1.8842
X4.9677Y-3.2842
T14
X4.2953Y-5.2283
X5.9094Y-3.2835
T15
X3.9167Y-4.2972
X3.9167Y-4.8878
X4.9142Y-4.2971
X4.9142Y-4.8877
T13
G00X3.7677Y-2.0841
M15
G01X3.7677Y-2.1443
M16
G05
G00X3.7677Y-3.0241
M15
G01X3.7677Y-3.0843
M16
G05
G00X3.9677Y-2.0841
M15
G01X3.9677Y-2.1443
M16
G05
G00X3.9677Y-3.0241
M15
G01X3.9677Y-3.0843
M16
G05
G00X4.1677Y-2.0841
M15
G01X4.1677Y-2.1443
M16
G05
G00X4.1677Y-3.0241
M15
G01X4.1677Y-3.0843
M16
G05
G00X4.3677Y-2.0841
M15
G01X4.3677Y-2.1443
M16
G05
G00X4.3677Y-3.0241
M15
G01X4.3677Y-3.0843
M16
G05
G00X4.5677Y-2.0841
M15
G01X4.5677Y-2.1443
M16
G05
G00X4.5677Y-3.0241
M15
G01X4.5677Y-3.0843
M16
G05
M30
