%TF.GenerationSoftware,KiCad,Pcbnew,8.0.5*%
%TF.CreationDate,2024-10-11T09:15:33-05:00*%
%TF.ProjectId,Lab2_starter,4c616232-5f73-4746-9172-7465722e6b69,1*%
%TF.SameCoordinates,Original*%
%TF.FileFunction,Copper,L1,Top*%
%TF.FilePolarity,Positive*%
%FSLAX46Y46*%
G04 Gerber Fmt 4.6, Leading zero omitted, Abs format (unit mm)*
G04 Created by KiCad (PCBNEW 8.0.5) date 2024-10-11 09:15:33*
%MOMM*%
%LPD*%
G01*
G04 APERTURE LIST*
G04 Aperture macros list*
%AMRoundRect*
0 Rectangle with rounded corners*
0 $1 Rounding radius*
0 $2 $3 $4 $5 $6 $7 $8 $9 X,Y pos of 4 corners*
0 Add a 4 corners polygon primitive as box body*
4,1,4,$2,$3,$4,$5,$6,$7,$8,$9,$2,$3,0*
0 Add four circle primitives for the rounded corners*
1,1,$1+$1,$2,$3*
1,1,$1+$1,$4,$5*
1,1,$1+$1,$6,$7*
1,1,$1+$1,$8,$9*
0 Add four rect primitives between the rounded corners*
20,1,$1+$1,$2,$3,$4,$5,0*
20,1,$1+$1,$4,$5,$6,$7,0*
20,1,$1+$1,$6,$7,$8,$9,0*
20,1,$1+$1,$8,$9,$2,$3,0*%
%AMFreePoly0*
4,1,19,0.500000,-0.750000,0.000000,-0.750000,0.000000,-0.744911,-0.071157,-0.744911,-0.207708,-0.704816,-0.327430,-0.627875,-0.420627,-0.520320,-0.479746,-0.390866,-0.500000,-0.250000,-0.500000,0.250000,-0.479746,0.390866,-0.420627,0.520320,-0.327430,0.627875,-0.207708,0.704816,-0.071157,0.744911,0.000000,0.744911,0.000000,0.750000,0.500000,0.750000,0.500000,-0.750000,0.500000,-0.750000,
$1*%
%AMFreePoly1*
4,1,19,0.000000,0.744911,0.071157,0.744911,0.207708,0.704816,0.327430,0.627875,0.420627,0.520320,0.479746,0.390866,0.500000,0.250000,0.500000,-0.250000,0.479746,-0.390866,0.420627,-0.520320,0.327430,-0.627875,0.207708,-0.704816,0.071157,-0.744911,0.000000,-0.744911,0.000000,-0.750000,-0.500000,-0.750000,-0.500000,0.750000,0.000000,0.750000,0.000000,0.744911,0.000000,0.744911,
$1*%
G04 Aperture macros list end*
%TA.AperFunction,ComponentPad*%
%ADD10C,2.000000*%
%TD*%
%TA.AperFunction,ComponentPad*%
%ADD11C,2.300000*%
%TD*%
%TA.AperFunction,ComponentPad*%
%ADD12C,1.200000*%
%TD*%
%TA.AperFunction,SMDPad,CuDef*%
%ADD13RoundRect,0.250000X0.262500X0.450000X-0.262500X0.450000X-0.262500X-0.450000X0.262500X-0.450000X0*%
%TD*%
%TA.AperFunction,SMDPad,CuDef*%
%ADD14RoundRect,0.250000X0.475000X-0.250000X0.475000X0.250000X-0.475000X0.250000X-0.475000X-0.250000X0*%
%TD*%
%TA.AperFunction,ComponentPad*%
%ADD15C,3.600000*%
%TD*%
%TA.AperFunction,ComponentPad*%
%ADD16C,2.800000*%
%TD*%
%TA.AperFunction,ComponentPad*%
%ADD17C,2.600000*%
%TD*%
%TA.AperFunction,ComponentPad*%
%ADD18O,2.600000X4.200000*%
%TD*%
%TA.AperFunction,ComponentPad*%
%ADD19R,1.625600X1.625600*%
%TD*%
%TA.AperFunction,ComponentPad*%
%ADD20C,1.625600*%
%TD*%
%TA.AperFunction,SMDPad,CuDef*%
%ADD21R,1.500000X1.600000*%
%TD*%
%TA.AperFunction,ComponentPad*%
%ADD22C,2.250000*%
%TD*%
%TA.AperFunction,SMDPad,CuDef*%
%ADD23RoundRect,0.250000X-0.475000X0.250000X-0.475000X-0.250000X0.475000X-0.250000X0.475000X0.250000X0*%
%TD*%
%TA.AperFunction,SMDPad,CuDef*%
%ADD24RoundRect,0.250000X-0.262500X-0.450000X0.262500X-0.450000X0.262500X0.450000X-0.262500X0.450000X0*%
%TD*%
%TA.AperFunction,ComponentPad*%
%ADD25R,1.828800X1.828800*%
%TD*%
%TA.AperFunction,ComponentPad*%
%ADD26C,1.828800*%
%TD*%
%TA.AperFunction,SMDPad,CuDef*%
%ADD27RoundRect,0.250000X-0.250000X-0.475000X0.250000X-0.475000X0.250000X0.475000X-0.250000X0.475000X0*%
%TD*%
%TA.AperFunction,ComponentPad*%
%ADD28R,1.905000X2.000000*%
%TD*%
%TA.AperFunction,ComponentPad*%
%ADD29O,1.905000X2.000000*%
%TD*%
%TA.AperFunction,ComponentPad*%
%ADD30R,2.250000X2.250000*%
%TD*%
%TA.AperFunction,SMDPad,CuDef*%
%ADD31FreePoly0,270.000000*%
%TD*%
%TA.AperFunction,SMDPad,CuDef*%
%ADD32FreePoly1,270.000000*%
%TD*%
%TA.AperFunction,SMDPad,CuDef*%
%ADD33RoundRect,0.250000X0.250000X0.475000X-0.250000X0.475000X-0.250000X-0.475000X0.250000X-0.475000X0*%
%TD*%
%TA.AperFunction,ComponentPad*%
%ADD34R,1.508000X1.508000*%
%TD*%
%TA.AperFunction,ComponentPad*%
%ADD35C,1.508000*%
%TD*%
%TA.AperFunction,SMDPad,CuDef*%
%ADD36RoundRect,0.150000X-0.825000X-0.150000X0.825000X-0.150000X0.825000X0.150000X-0.825000X0.150000X0*%
%TD*%
%TA.AperFunction,ComponentPad*%
%ADD37R,1.700000X1.700000*%
%TD*%
%TA.AperFunction,ComponentPad*%
%ADD38O,1.700000X1.700000*%
%TD*%
%TA.AperFunction,ComponentPad*%
%ADD39C,1.371600*%
%TD*%
%TA.AperFunction,ComponentPad*%
%ADD40R,1.371600X1.371600*%
%TD*%
%TA.AperFunction,ComponentPad*%
%ADD41R,1.300000X1.300000*%
%TD*%
%TA.AperFunction,ComponentPad*%
%ADD42C,1.300000*%
%TD*%
%TA.AperFunction,ComponentPad*%
%ADD43C,1.507998*%
%TD*%
%TA.AperFunction,ViaPad*%
%ADD44C,0.800000*%
%TD*%
%TA.AperFunction,ViaPad*%
%ADD45C,1.600000*%
%TD*%
%TA.AperFunction,Conductor*%
%ADD46C,0.500000*%
%TD*%
%TA.AperFunction,Conductor*%
%ADD47C,0.700000*%
%TD*%
%TA.AperFunction,Conductor*%
%ADD48C,0.850000*%
%TD*%
%TA.AperFunction,Conductor*%
%ADD49C,0.250000*%
%TD*%
%TA.AperFunction,Conductor*%
%ADD50C,1.000000*%
%TD*%
G04 APERTURE END LIST*
D10*
%TO.P,TP7,1,1*%
%TO.N,GND*%
X29000000Y-134800000D03*
%TD*%
D11*
%TO.P,J15,1,Pin_1*%
%TO.N,GND*%
X71500000Y-103730000D03*
D12*
%TO.P,J15,2,Pin_2*%
%TO.N,Vout_sens*%
X71500000Y-106270000D03*
%TD*%
D13*
%TO.P,R6,1*%
%TO.N,Vin_sens*%
X153512500Y-91000000D03*
%TO.P,R6,2*%
%TO.N,GND*%
X151687500Y-91000000D03*
%TD*%
D14*
%TO.P,C2,1*%
%TO.N,+3.3V*%
X155000000Y-64950000D03*
%TO.P,C2,2*%
%TO.N,GND*%
X155000000Y-63050000D03*
%TD*%
D15*
%TO.P,J5,1,Pin_1*%
%TO.N,Vsw*%
X109100000Y-132800000D03*
%TD*%
D16*
%TO.P,L1,1,1*%
%TO.N,unconnected-(L1-Pad1)_9*%
X85540000Y-47858000D03*
%TO.N,unconnected-(L1-Pad1)_7*%
X88080000Y-50398000D03*
%TO.N,unconnected-(L1-Pad1)_11*%
X90620000Y-47858000D03*
D17*
%TO.N,unconnected-(L1-Pad1)_3*%
X90620000Y-52938000D03*
D16*
%TO.N,unconnected-(L1-Pad1)_13*%
X93160000Y-50398000D03*
%TO.N,unconnected-(L1-Pad1)_18*%
X95700000Y-47858000D03*
D18*
%TO.N,unconnected-(L1-Pad1)_23*%
X95700000Y-53700000D03*
D16*
%TO.N,unconnected-(L1-Pad1)_2*%
X98240000Y-50398000D03*
%TO.N,unconnected-(L1-Pad1)_15*%
X100780000Y-47858000D03*
D18*
%TO.N,unconnected-(L1-Pad1)_8*%
X100780000Y-53700000D03*
D16*
%TO.N,unconnected-(L1-Pad1)_21*%
X103320000Y-50398000D03*
%TO.N,unconnected-(L1-Pad1)_22*%
X105860000Y-47858000D03*
D18*
%TO.N,unconnected-(L1-Pad1)*%
X105860000Y-53700000D03*
D16*
%TO.N,unconnected-(L1-Pad1)_16*%
X108400000Y-50398000D03*
%TO.N,unconnected-(L1-Pad1)_19*%
X110940000Y-47858000D03*
D18*
%TO.N,unconnected-(L1-Pad1)_17*%
X110940000Y-53700000D03*
D16*
%TO.N,unconnected-(L1-Pad1)_4*%
X113480000Y-50398000D03*
%TO.N,unconnected-(L1-Pad1)_1*%
X116020000Y-47858000D03*
D18*
%TO.N,unconnected-(L1-Pad1)_6*%
X116020000Y-53700000D03*
D16*
%TO.N,unconnected-(L1-Pad1)_14*%
X118560000Y-50398000D03*
%TO.N,unconnected-(L1-Pad1)_10*%
X121100000Y-47858000D03*
D17*
%TO.N,unconnected-(L1-Pad1)_5*%
X121100000Y-52938000D03*
D16*
%TO.N,unconnected-(L1-Pad1)_20*%
X123640000Y-50398000D03*
%TO.N,unconnected-(L1-Pad1)_12*%
X126180000Y-47858000D03*
%TO.P,L1,2,2*%
%TO.N,unconnected-(L1-Pad2)_17*%
X85540000Y-83418000D03*
%TO.N,unconnected-(L1-Pad2)_14*%
X88080000Y-80878000D03*
D17*
%TO.N,unconnected-(L1-Pad2)_8*%
X90620000Y-78338000D03*
D16*
%TO.N,unconnected-(L1-Pad2)_20*%
X90620000Y-83418000D03*
%TO.N,unconnected-(L1-Pad2)_19*%
X93160000Y-80878000D03*
D18*
%TO.N,unconnected-(L1-Pad2)_15*%
X95700000Y-77576000D03*
D16*
%TO.N,unconnected-(L1-Pad2)_6*%
X95700000Y-83418000D03*
%TO.N,unconnected-(L1-Pad2)_13*%
X98240000Y-80878000D03*
D18*
%TO.N,unconnected-(L1-Pad2)_23*%
X100780000Y-77576000D03*
D16*
%TO.N,unconnected-(L1-Pad2)*%
X100780000Y-83418000D03*
%TO.N,unconnected-(L1-Pad2)_5*%
X103320000Y-80878000D03*
D18*
%TO.N,unconnected-(L1-Pad2)_3*%
X105860000Y-77576000D03*
D16*
%TO.N,unconnected-(L1-Pad2)_9*%
X105860000Y-83418000D03*
%TO.N,unconnected-(L1-Pad2)_2*%
X108400000Y-80878000D03*
D18*
%TO.N,unconnected-(L1-Pad2)_21*%
X110940000Y-77576000D03*
D16*
%TO.N,unconnected-(L1-Pad2)_4*%
X110940000Y-83418000D03*
%TO.N,unconnected-(L1-Pad2)_18*%
X113480000Y-80878000D03*
D18*
%TO.N,unconnected-(L1-Pad2)_22*%
X116020000Y-77576000D03*
D16*
%TO.N,unconnected-(L1-Pad2)_16*%
X116020000Y-83418000D03*
%TO.N,unconnected-(L1-Pad2)_1*%
X118560000Y-80878000D03*
D17*
%TO.N,unconnected-(L1-Pad2)_10*%
X121100000Y-78338000D03*
D16*
%TO.N,unconnected-(L1-Pad2)_7*%
X121100000Y-83418000D03*
%TO.N,unconnected-(L1-Pad2)_12*%
X123640000Y-80878000D03*
%TO.N,unconnected-(L1-Pad2)_11*%
X126180000Y-83418000D03*
%TD*%
D11*
%TO.P,J8,1,Pin_1*%
%TO.N,GND*%
X104700000Y-134000000D03*
D12*
%TO.P,J8,2,Pin_2*%
%TO.N,D'*%
X102160000Y-134000000D03*
%TD*%
D19*
%TO.P,RV1,1*%
%TO.N,Vout*%
X55388000Y-105950000D03*
D20*
%TO.P,RV1,2*%
%TO.N,GND*%
X47888000Y-103450000D03*
%TD*%
D10*
%TO.P,TP5,1,1*%
%TO.N,+3.3V*%
X141900000Y-54300000D03*
%TD*%
D21*
%TO.P,D3,1,K*%
%TO.N,Net-(D3-K)*%
X27850000Y-107000000D03*
%TO.P,D3,2,A*%
%TO.N,Net-(D3-A)*%
X24350000Y-107000000D03*
%TD*%
D22*
%TO.P,F1,1*%
%TO.N,+24V*%
X139500000Y-61500000D03*
%TO.P,F1,2*%
%TO.N,Vin*%
X139500000Y-97100000D03*
%TD*%
D23*
%TO.P,C1,1*%
%TO.N,Net-(U2-FILTER)*%
X155000000Y-74550000D03*
%TO.P,C1,2*%
%TO.N,GND*%
X155000000Y-76450000D03*
%TD*%
D11*
%TO.P,J7,1,Pin_1*%
%TO.N,GND*%
X78830000Y-119900000D03*
D12*
%TO.P,J7,2,Pin_2*%
%TO.N,C2000 D *%
X81370000Y-119900000D03*
%TD*%
D24*
%TO.P,R8,1*%
%TO.N,Net-(C11-Pad1)*%
X66687500Y-101000000D03*
%TO.P,R8,2*%
%TO.N,Vout_sens*%
X68512500Y-101000000D03*
%TD*%
D11*
%TO.P,J13,1,Pin_1*%
%TO.N,GND*%
X116400000Y-128100000D03*
D12*
%TO.P,J13,2,Pin_2*%
%TO.N,Vout*%
X113860000Y-128100000D03*
%TD*%
D14*
%TO.P,C10,1*%
%TO.N,+3.3V*%
X148500000Y-64950000D03*
%TO.P,C10,2*%
%TO.N,GND*%
X148500000Y-63050000D03*
%TD*%
D25*
%TO.P,D1,1,K*%
%TO.N,Vout*%
X61331200Y-97700000D03*
D26*
%TO.P,D1,2,A*%
%TO.N,GND*%
X43271800Y-97700000D03*
%TD*%
D24*
%TO.P,R7,1*%
%TO.N,Net-(C8-Pad1)*%
X81487500Y-93500000D03*
%TO.P,R7,2*%
%TO.N,I_L*%
X83312500Y-93500000D03*
%TD*%
D27*
%TO.P,C14,1*%
%TO.N,Net-(C14-Pad1)*%
X66650000Y-95700000D03*
%TO.P,C14,2*%
%TO.N,GND*%
X68550000Y-95700000D03*
%TD*%
D28*
%TO.P,Q1,1,G*%
%TO.N,D*%
X109483250Y-113650000D03*
D29*
%TO.P,Q1,2,D*%
%TO.N,Vsw*%
X112023250Y-113650000D03*
%TO.P,Q1,3,S*%
%TO.N,GND*%
X114563250Y-113650000D03*
%TD*%
D30*
%TO.P,J3,1,Pin_1*%
%TO.N,Vout*%
X23050000Y-114700000D03*
D22*
X40550000Y-114700000D03*
%TD*%
D14*
%TO.P,C7,1*%
%TO.N,+24V*%
X133500000Y-57500000D03*
%TO.P,C7,2*%
%TO.N,GND*%
X133500000Y-55600000D03*
%TD*%
D30*
%TO.P,J4,1,Pin_1*%
%TO.N,GND*%
X22950000Y-124800000D03*
D22*
X40450000Y-124800000D03*
%TD*%
D30*
%TO.P,J1,1,Pin_1*%
%TO.N,+24V*%
X135950000Y-116100000D03*
D22*
X153450000Y-116100000D03*
%TD*%
D11*
%TO.P,J11,1,Pin_1*%
%TO.N,GND*%
X78730000Y-114900000D03*
D12*
%TO.P,J11,2,Pin_2*%
%TO.N,C2000 D'*%
X81270000Y-114900000D03*
%TD*%
D31*
%TO.P,JP1,1,A*%
%TO.N,Net-(JP1-A)*%
X72700000Y-116100000D03*
D32*
%TO.P,JP1,2,B*%
%TO.N,SD*%
X72700000Y-117400000D03*
%TD*%
D27*
%TO.P,C8,1*%
%TO.N,Net-(C8-Pad1)*%
X66600000Y-93500000D03*
%TO.P,C8,2*%
%TO.N,GND*%
X68500000Y-93500000D03*
%TD*%
D28*
%TO.P,Q2,1,G*%
%TO.N,D'*%
X114483250Y-119650000D03*
D29*
%TO.P,Q2,2,D*%
%TO.N,Vout*%
X111943250Y-119650000D03*
%TO.P,Q2,3,S*%
%TO.N,Vsw*%
X109403250Y-119650000D03*
%TD*%
D24*
%TO.P,R10,1*%
%TO.N,Net-(D3-K)*%
X32087500Y-106000000D03*
%TO.P,R10,2*%
%TO.N,GND*%
X33912500Y-106000000D03*
%TD*%
%TO.P,R5,1*%
%TO.N,Vin*%
X151687500Y-88500000D03*
%TO.P,R5,2*%
%TO.N,Vin_sens*%
X153512500Y-88500000D03*
%TD*%
D14*
%TO.P,C13,1*%
%TO.N,+24V*%
X137500000Y-57450000D03*
%TO.P,C13,2*%
%TO.N,GND*%
X137500000Y-55550000D03*
%TD*%
D10*
%TO.P,TP2,1,1*%
%TO.N,GND*%
X138100000Y-134300000D03*
%TD*%
D21*
%TO.P,D4,1,K*%
%TO.N,Net-(D4-K)*%
X27850000Y-102700000D03*
%TO.P,D4,2,A*%
%TO.N,Net-(D4-A)*%
X24350000Y-102700000D03*
%TD*%
D15*
%TO.P,J6,1,Pin_1*%
%TO.N,/L_in*%
X150100000Y-83400000D03*
%TD*%
D33*
%TO.P,C20,1*%
%TO.N,+3.3V*%
X151450000Y-60000000D03*
%TO.P,C20,2*%
%TO.N,GND*%
X149550000Y-60000000D03*
%TD*%
D11*
%TO.P,J16,1,Pin_1*%
%TO.N,GND*%
X150000000Y-77770000D03*
D12*
%TO.P,J16,2,Pin_2*%
%TO.N,I_L*%
X150000000Y-75230000D03*
%TD*%
D27*
%TO.P,C11,1*%
%TO.N,Net-(C11-Pad1)*%
X66650000Y-98600000D03*
%TO.P,C11,2*%
%TO.N,GND*%
X68550000Y-98600000D03*
%TD*%
D11*
%TO.P,J14,1,Pin_1*%
%TO.N,GND*%
X151030000Y-97700000D03*
D12*
%TO.P,J14,2,Pin_2*%
%TO.N,Vin_sens*%
X153570000Y-97700000D03*
%TD*%
D11*
%TO.P,J10,1,Pin_1*%
%TO.N,GND*%
X116370000Y-132500000D03*
D12*
%TO.P,J10,2,Pin_2*%
%TO.N,Vsw*%
X113830000Y-132500000D03*
%TD*%
D24*
%TO.P,R12,1*%
%TO.N,SD*%
X32000000Y-109000000D03*
%TO.P,R12,2*%
%TO.N,+3.3V*%
X33825000Y-109000000D03*
%TD*%
%TO.P,R11,1*%
%TO.N,Net-(D4-K)*%
X32087500Y-102700000D03*
%TO.P,R11,2*%
%TO.N,GND*%
X33912500Y-102700000D03*
%TD*%
D34*
%TO.P,PS1,1,VIN*%
%TO.N,+24V*%
X135360000Y-107050000D03*
D35*
%TO.P,PS1,2,GND*%
%TO.N,GND*%
X137900000Y-107050000D03*
%TO.P,PS1,3,VOUT*%
%TO.N,+3.3V*%
X140440000Y-107050000D03*
%TD*%
D10*
%TO.P,TP13,1,1*%
%TO.N,GND*%
X147000000Y-42800000D03*
%TD*%
%TO.P,TP3,1,1*%
%TO.N,+12V*%
X83800000Y-129300000D03*
%TD*%
D11*
%TO.P,J12,1,Pin_1*%
%TO.N,GND*%
X91440000Y-129400000D03*
D12*
%TO.P,J12,2,Pin_2*%
%TO.N,Vboot*%
X88900000Y-129400000D03*
%TD*%
D14*
%TO.P,C21,1*%
%TO.N,+3.3V*%
X152000000Y-64950000D03*
%TO.P,C21,2*%
%TO.N,GND*%
X152000000Y-63050000D03*
%TD*%
D11*
%TO.P,J9,1,Pin_1*%
%TO.N,GND*%
X103000000Y-100700000D03*
D12*
%TO.P,J9,2,Pin_2*%
%TO.N,D*%
X100460000Y-100700000D03*
%TD*%
D36*
%TO.P,U2,1,IP+*%
%TO.N,Vin*%
X149525000Y-68095000D03*
%TO.P,U2,2,IP+*%
X149525000Y-69365000D03*
%TO.P,U2,3,IP-*%
%TO.N,/L_in*%
X149525000Y-70635000D03*
%TO.P,U2,4,IP-*%
X149525000Y-71905000D03*
%TO.P,U2,5,GND*%
%TO.N,GND*%
X154475000Y-71905000D03*
%TO.P,U2,6,FILTER*%
%TO.N,Net-(U2-FILTER)*%
X154475000Y-70635000D03*
%TO.P,U2,7,OUT*%
%TO.N,I_L*%
X154475000Y-69365000D03*
%TO.P,U2,8,VCC*%
%TO.N,+3.3V*%
X154475000Y-68095000D03*
%TD*%
D37*
%TO.P,U3,41*%
%TO.N,+3.3V*%
X26440000Y-49370000D03*
D38*
%TO.P,U3,42*%
%TO.N,unconnected-(U3-Pad42)*%
X26440000Y-51910000D03*
%TO.P,U3,43*%
%TO.N,unconnected-(U3-Pad43)*%
X26440000Y-54450000D03*
%TO.P,U3,44*%
%TO.N,unconnected-(U3-Pad44)*%
X26440000Y-56990000D03*
%TO.P,U3,45*%
%TO.N,unconnected-(U3-Pad45)*%
X26440000Y-59530000D03*
%TO.P,U3,46*%
%TO.N,unconnected-(U3-Pad46)*%
X26440000Y-62070000D03*
%TO.P,U3,47*%
%TO.N,unconnected-(U3-Pad47)*%
X26440000Y-64610000D03*
%TO.P,U3,48*%
%TO.N,Net-(C8-Pad1)*%
X26440000Y-67150000D03*
%TO.P,U3,49*%
%TO.N,unconnected-(U3-Pad49)*%
X26440000Y-69690000D03*
%TO.P,U3,50*%
%TO.N,unconnected-(U3-Pad50)*%
X26440000Y-72230000D03*
%TO.P,U3,51*%
%TO.N,unconnected-(U3-Pad51)*%
X72160000Y-72230000D03*
%TO.P,U3,52*%
%TO.N,unconnected-(U3-Pad52)*%
X72160000Y-69690000D03*
%TO.P,U3,53*%
%TO.N,unconnected-(U3-Pad53)*%
X72160000Y-67150000D03*
%TO.P,U3,54*%
%TO.N,unconnected-(U3-Pad54)*%
X72160000Y-64610000D03*
%TO.P,U3,55*%
%TO.N,unconnected-(U3-Pad55)*%
X72160000Y-62070000D03*
%TO.P,U3,56*%
%TO.N,unconnected-(U3-Pad56)*%
X72160000Y-59530000D03*
%TO.P,U3,57*%
%TO.N,unconnected-(U3-Pad57)*%
X72160000Y-56990000D03*
%TO.P,U3,58*%
%TO.N,unconnected-(U3-Pad58)*%
X72160000Y-54450000D03*
%TO.P,U3,59*%
%TO.N,unconnected-(U3-Pad59)*%
X72160000Y-51910000D03*
%TO.P,U3,60*%
%TO.N,GND*%
X72160000Y-49370000D03*
%TO.P,U3,61*%
%TO.N,unconnected-(U3-Pad61)*%
X28980000Y-49370000D03*
%TO.P,U3,62*%
%TO.N,GND*%
X28980000Y-51910000D03*
%TO.P,U3,63*%
%TO.N,unconnected-(U3-Pad63)*%
X28980000Y-54450000D03*
%TO.P,U3,64*%
%TO.N,unconnected-(U3-Pad64)*%
X28980000Y-56990000D03*
%TO.P,U3,65*%
%TO.N,unconnected-(U3-Pad65)*%
X28980000Y-59530000D03*
%TO.P,U3,66*%
%TO.N,unconnected-(U3-Pad66)*%
X28980000Y-62070000D03*
%TO.P,U3,67*%
%TO.N,unconnected-(U3-Pad67)*%
X28980000Y-64610000D03*
%TO.P,U3,68*%
%TO.N,unconnected-(U3-Pad68)*%
X28980000Y-67150000D03*
%TO.P,U3,69*%
%TO.N,Net-(C14-Pad1)*%
X28980000Y-69690000D03*
%TO.P,U3,70*%
%TO.N,Net-(C11-Pad1)*%
X28980000Y-72230000D03*
%TO.P,U3,71*%
%TO.N,unconnected-(U3-Pad71)*%
X69620000Y-72230000D03*
%TO.P,U3,72*%
%TO.N,unconnected-(U3-Pad72)*%
X69620000Y-69690000D03*
%TO.P,U3,73*%
%TO.N,unconnected-(U3-Pad73)*%
X69620000Y-67150000D03*
%TO.P,U3,74*%
%TO.N,Net-(JP1-A)*%
X69620000Y-64610000D03*
%TO.P,U3,75*%
%TO.N,unconnected-(U3-Pad75)*%
X69620000Y-62070000D03*
%TO.P,U3,76*%
%TO.N,unconnected-(U3-Pad76)*%
X69620000Y-59530000D03*
%TO.P,U3,77*%
%TO.N,unconnected-(U3-Pad77)*%
X69620000Y-56990000D03*
%TO.P,U3,78*%
%TO.N,unconnected-(U3-Pad78)*%
X69620000Y-54450000D03*
%TO.P,U3,79*%
%TO.N,C2000 D'*%
X69620000Y-51910000D03*
D37*
%TO.P,U3,80*%
%TO.N,C2000 D *%
X69620000Y-49370000D03*
%TD*%
D39*
%TO.P,C16,1*%
%TO.N,Vout*%
X109700000Y-100900000D03*
%TO.P,C16,2*%
%TO.N,GND*%
X114700000Y-100900000D03*
%TD*%
D15*
%TO.P,HS1,*%
%TO.N,*%
X99483250Y-109150000D03*
X124819750Y-109146434D03*
%TD*%
D24*
%TO.P,R9,1*%
%TO.N,Net-(C14-Pad1)*%
X151587500Y-94900000D03*
%TO.P,R9,2*%
%TO.N,Vin_sens*%
X153412500Y-94900000D03*
%TD*%
D13*
%TO.P,R2,1*%
%TO.N,Vout_sens*%
X68512500Y-103700000D03*
%TO.P,R2,2*%
%TO.N,GND*%
X66687500Y-103700000D03*
%TD*%
D15*
%TO.P,HS2,*%
%TO.N,*%
X99483250Y-124150000D03*
X124819750Y-124146434D03*
%TD*%
D40*
%TO.P,PS2,1,VIN*%
%TO.N,+24V*%
X147860000Y-107149932D03*
D39*
%TO.P,PS2,2,GND*%
%TO.N,GND*%
X150400000Y-107149932D03*
%TO.P,PS2,3,VOUT*%
%TO.N,+12V*%
X152940000Y-107149932D03*
%TD*%
D23*
%TO.P,C19,1*%
%TO.N,+3.3V*%
X155000000Y-59050000D03*
%TO.P,C19,2*%
%TO.N,GND*%
X155000000Y-60950000D03*
%TD*%
D10*
%TO.P,TP1,1,1*%
%TO.N,+24V*%
X135000000Y-51500000D03*
%TD*%
%TO.P,TP11,1,1*%
%TO.N,GND*%
X144600000Y-134300000D03*
%TD*%
D30*
%TO.P,J2,1,Pin_1*%
%TO.N,GND*%
X135950000Y-126400000D03*
D22*
X153450000Y-126400000D03*
%TD*%
D24*
%TO.P,R1,1*%
%TO.N,Vout*%
X66687500Y-106300000D03*
%TO.P,R1,2*%
%TO.N,Vout_sens*%
X68512500Y-106300000D03*
%TD*%
D22*
%TO.P,SW1,*%
%TO.N,*%
X35350000Y-96700000D03*
X24650000Y-96700000D03*
D41*
%TO.P,SW1,1,A*%
%TO.N,+3.3V*%
X32500000Y-95500000D03*
D42*
%TO.P,SW1,2,B*%
%TO.N,SD*%
X30000000Y-95500000D03*
%TO.P,SW1,3,C*%
%TO.N,GND*%
X27500000Y-95500000D03*
%TO.P,SW1,4,A*%
%TO.N,Net-(D3-A)*%
X27500000Y-97900000D03*
%TO.P,SW1,5,B*%
%TO.N,+3.3V*%
X30000000Y-97900000D03*
%TO.P,SW1,6,C*%
%TO.N,Net-(D4-A)*%
X32500000Y-97900000D03*
%TD*%
D39*
%TO.P,C6,1*%
%TO.N,Vin*%
X150500000Y-55700000D03*
%TO.P,C6,2*%
%TO.N,GND*%
X150500000Y-50700000D03*
%TD*%
D43*
%TO.P,U1,1,LO*%
%TO.N,Net-(U1-LO)*%
X92653250Y-109800000D03*
%TO.P,U1,2,COM*%
%TO.N,GND*%
X92653250Y-112340000D03*
%TO.P,U1,3,VCC*%
%TO.N,+12V*%
X92653250Y-114880000D03*
%TO.P,U1,4,NC*%
%TO.N,unconnected-(U1-NC-Pad4)*%
X92653250Y-117420000D03*
%TO.P,U1,5,VS*%
%TO.N,Vsw*%
X92653250Y-119960000D03*
%TO.P,U1,6,VB*%
%TO.N,Vboot*%
X92653250Y-122500000D03*
%TO.P,U1,7,HO*%
%TO.N,Net-(U1-HO)*%
X92653250Y-125040000D03*
%TO.P,U1,8,NC*%
%TO.N,unconnected-(U1-NC-Pad8)*%
X85033250Y-109800000D03*
%TO.P,U1,9,VDD*%
%TO.N,+3.3V*%
X85033250Y-112340000D03*
%TO.P,U1,10,HIN*%
%TO.N,C2000 D'*%
X85033250Y-114880000D03*
%TO.P,U1,11,SD*%
%TO.N,SD*%
X85033250Y-117420000D03*
%TO.P,U1,12,LIN*%
%TO.N,C2000 D *%
X85033250Y-119960000D03*
%TO.P,U1,13,VSS*%
%TO.N,GND*%
X85033250Y-122500000D03*
%TO.P,U1,14,NC*%
%TO.N,unconnected-(U1-NC-Pad14)*%
X85033250Y-125040000D03*
%TD*%
D44*
%TO.N,+3.3V*%
X33825000Y-109000000D03*
X148500000Y-64950000D03*
X155000000Y-59050000D03*
%TO.N,GND*%
X154475000Y-71905000D03*
X33912500Y-102700000D03*
X137500000Y-55500000D03*
X66687500Y-103700000D03*
X68550000Y-98600000D03*
X151100000Y-103900000D03*
X68500000Y-93430636D03*
X155000000Y-76500000D03*
X151687500Y-91000000D03*
X152000000Y-63050000D03*
%TO.N,+24V*%
X133500000Y-57500000D03*
D45*
X135400000Y-62400000D03*
D44*
%TO.N,Net-(C8-Pad1)*%
X66600000Y-93500000D03*
%TO.N,Vout*%
X66687500Y-106300000D03*
%TO.N,I_L*%
X83312500Y-93500000D03*
%TO.N,Net-(JP1-A)*%
X72700000Y-116100000D03*
%TO.N,Vin*%
X149525000Y-68095000D03*
X151687500Y-88500000D03*
%TD*%
D46*
%TO.N,+3.3V*%
X155000000Y-67570000D02*
X154475000Y-68095000D01*
D47*
X32500000Y-95500000D02*
X32400000Y-95500000D01*
X32400000Y-95500000D02*
X30000000Y-97900000D01*
D46*
X155000000Y-64950000D02*
X155000000Y-67570000D01*
D48*
X21930000Y-49370000D02*
X26440000Y-49370000D01*
D46*
X152900000Y-60000000D02*
X151450000Y-60000000D01*
X148500000Y-64950000D02*
X152000000Y-64950000D01*
D48*
X32500000Y-95500000D02*
X32500000Y-88400000D01*
X21600000Y-49700000D02*
X21930000Y-49370000D01*
D46*
X153850000Y-59050000D02*
X152900000Y-60000000D01*
X155000000Y-64950000D02*
X152000000Y-64950000D01*
D48*
X81693250Y-109000000D02*
X85033250Y-112340000D01*
X33825000Y-109000000D02*
X81693250Y-109000000D01*
X32500000Y-88400000D02*
X21600000Y-77500000D01*
X21600000Y-77500000D02*
X21600000Y-49700000D01*
D46*
X155000000Y-59050000D02*
X153850000Y-59050000D01*
%TO.N,GND*%
X148500000Y-61050000D02*
X149550000Y-60000000D01*
D47*
X33912500Y-102700000D02*
X33912500Y-105900000D01*
D46*
X148500000Y-63050000D02*
X148500000Y-61050000D01*
D47*
X68500000Y-95650000D02*
X68550000Y-95700000D01*
D46*
X137450000Y-55600000D02*
X137500000Y-55550000D01*
X133500000Y-55600000D02*
X137450000Y-55600000D01*
X148500000Y-63050000D02*
X152000000Y-63050000D01*
X155000000Y-63050000D02*
X152000000Y-63050000D01*
X155000000Y-63050000D02*
X155000000Y-60950000D01*
D47*
X68500000Y-93500000D02*
X68500000Y-95650000D01*
D46*
%TO.N,Net-(U2-FILTER)*%
X153350000Y-74550000D02*
X152200000Y-73400000D01*
X153165000Y-70635000D02*
X154475000Y-70635000D01*
X155000000Y-74550000D02*
X153350000Y-74550000D01*
X152200000Y-71600000D02*
X153165000Y-70635000D01*
X152200000Y-73400000D02*
X152200000Y-71600000D01*
D47*
%TO.N,+24V*%
X138600000Y-62400000D02*
X139500000Y-61500000D01*
X135400000Y-62400000D02*
X138600000Y-62400000D01*
X137450000Y-57500000D02*
X137500000Y-57450000D01*
X133500000Y-57500000D02*
X137450000Y-57500000D01*
%TO.N,Net-(C8-Pad1)*%
X81487500Y-93500000D02*
X80212500Y-92225000D01*
X67875000Y-92225000D02*
X66600000Y-93500000D01*
X80212500Y-92225000D02*
X67875000Y-92225000D01*
%TO.N,Net-(C11-Pad1)*%
X66650000Y-98600000D02*
X66650000Y-100962500D01*
X40280000Y-72230000D02*
X28980000Y-72230000D01*
X66650000Y-100962500D02*
X66687500Y-101000000D01*
X66650000Y-98600000D02*
X40280000Y-72230000D01*
%TO.N,Net-(C14-Pad1)*%
X67950000Y-97000000D02*
X72500000Y-97000000D01*
X66650000Y-95700000D02*
X65550000Y-94600000D01*
X65510000Y-94600000D02*
X40600000Y-69690000D01*
X72500000Y-97000000D02*
X74600000Y-94900000D01*
X65550000Y-94600000D02*
X65510000Y-94600000D01*
X40600000Y-69690000D02*
X28980000Y-69690000D01*
X66650000Y-95700000D02*
X67950000Y-97000000D01*
X74600000Y-94900000D02*
X151587500Y-94900000D01*
%TO.N,+12V*%
X89100000Y-124000000D02*
X89100000Y-111300000D01*
D48*
X89100000Y-97100000D02*
X89100000Y-111300000D01*
X130900000Y-96600000D02*
X130600000Y-96300000D01*
X89300000Y-111526750D02*
X92653250Y-114880000D01*
X89100000Y-111300000D02*
X89300000Y-111500000D01*
X130900000Y-110500000D02*
X130900000Y-96600000D01*
X130600000Y-96300000D02*
X89900000Y-96300000D01*
D47*
X83800000Y-129300000D02*
X89100000Y-124000000D01*
D48*
X152940000Y-107149932D02*
X149589932Y-110500000D01*
X89900000Y-96300000D02*
X89100000Y-97100000D01*
X149589932Y-110500000D02*
X130900000Y-110500000D01*
X89300000Y-111500000D02*
X89300000Y-111526750D01*
%TO.N,Vout*%
X61331200Y-97700000D02*
X61331200Y-98043700D01*
D49*
X55388000Y-105950000D02*
X55950000Y-105950000D01*
D47*
%TO.N,Net-(D3-A)*%
X26500000Y-97900000D02*
X27500000Y-97900000D01*
X22900000Y-106700000D02*
X22900000Y-101500000D01*
X22900000Y-101500000D02*
X26500000Y-97900000D01*
X23200000Y-107000000D02*
X22900000Y-106700000D01*
X24350000Y-107000000D02*
X23200000Y-107000000D01*
%TO.N,Net-(D3-K)*%
X28850000Y-106000000D02*
X27850000Y-107000000D01*
X32087500Y-106000000D02*
X28850000Y-106000000D01*
%TO.N,Net-(D4-A)*%
X24350000Y-102700000D02*
X26050000Y-101000000D01*
X29400000Y-101000000D02*
X32500000Y-97900000D01*
X26050000Y-101000000D02*
X29400000Y-101000000D01*
%TO.N,Net-(D4-K)*%
X32087500Y-102700000D02*
X27850000Y-102700000D01*
D50*
%TO.N,Vsw*%
X112023250Y-117030000D02*
X109403250Y-119650000D01*
X112023250Y-113650000D02*
X112023250Y-117030000D01*
D47*
%TO.N,/L_in*%
X149525000Y-71905000D02*
X147895000Y-71905000D01*
X147895000Y-71905000D02*
X147700000Y-72100000D01*
X147700000Y-72100000D02*
X147700000Y-81000000D01*
X147700000Y-81000000D02*
X150100000Y-83400000D01*
D46*
X149525000Y-70635000D02*
X149525000Y-71905000D01*
%TO.N,C2000 D *%
X81430000Y-119960000D02*
X81370000Y-119900000D01*
X85033250Y-119960000D02*
X81430000Y-119960000D01*
%TO.N,C2000 D'*%
X85033250Y-114880000D02*
X81290000Y-114880000D01*
X81290000Y-114880000D02*
X81270000Y-114900000D01*
%TO.N,Vin_sens*%
X153512500Y-91000000D02*
X153512500Y-94000000D01*
X153512500Y-94000000D02*
X153512500Y-97687500D01*
X153512500Y-88500000D02*
X153512500Y-91000000D01*
X153512500Y-97687500D02*
X153500000Y-97700000D01*
D49*
X153425000Y-94000000D02*
X153425000Y-93825000D01*
X153425000Y-93825000D02*
X153512500Y-93737500D01*
D46*
%TO.N,Vout_sens*%
X68512500Y-106300000D02*
X71170000Y-106300000D01*
D47*
X68512500Y-106300000D02*
X68512500Y-103700000D01*
D46*
X71170000Y-106300000D02*
X71200000Y-106270000D01*
D47*
X68512500Y-101000000D02*
X68512500Y-103700000D01*
D46*
%TO.N,I_L*%
X152735000Y-69365000D02*
X154475000Y-69365000D01*
X151300000Y-70800000D02*
X152735000Y-69365000D01*
X151300000Y-73930000D02*
X151300000Y-70800000D01*
X150000000Y-75230000D02*
X151300000Y-73930000D01*
D47*
%TO.N,SD*%
X21900000Y-106972792D02*
X21900000Y-96500000D01*
X24100000Y-94300000D02*
X28800000Y-94300000D01*
X78520000Y-117420000D02*
X78500000Y-117400000D01*
X28800000Y-94300000D02*
X30000000Y-95500000D01*
D48*
X32000000Y-109700000D02*
X32000000Y-109000000D01*
X78500000Y-117400000D02*
X52000000Y-117400000D01*
X44925000Y-110325000D02*
X32625000Y-110325000D01*
X32625000Y-110325000D02*
X32000000Y-109700000D01*
D47*
X23927208Y-109000000D02*
X21900000Y-106972792D01*
D49*
X32000000Y-108500000D02*
X32000000Y-109000000D01*
D47*
X85033250Y-117420000D02*
X78520000Y-117420000D01*
X21900000Y-96500000D02*
X24100000Y-94300000D01*
X32000000Y-109000000D02*
X23927208Y-109000000D01*
D48*
X52000000Y-117400000D02*
X44925000Y-110325000D01*
D46*
%TO.N,Vin*%
X149525000Y-68095000D02*
X149525000Y-69365000D01*
%TD*%
M02*
